<svg focusable="false" class="svgicon svgicon--block" xmlns="http://www.w3.org/2000/svg" width="271" height="37" viewBox="0 0 271 37">
	<g fill="none" fill-rule="evenodd">
		<path d="M-44.96 81.655h360.866v-126.31H-44.96z"></path>
		<path d="M28.661 10.985a24.559 24.559 0 0 0-8.877-1.66c-6.35 0-10.417 3.95-10.417 10.385 0 6.094 3.273 9.896 9.523 9.896 1.192 0 2.282-.149 3.174-.439V18.393H29.8V34.33c-3.27 1.32-7.439 2.146-11.752 2.146-10.863 0-17.012-6.188-17.012-16.183 0-10.481 7.29-17.742 19.192-17.742 3.374 0 6.796.583 9.624 1.41l-1.191 7.023M56.73 22.39c0-6.337-3.273-11.26-10.711-11.26-7.638 0-11.853 5.51-11.853 12.967 0 8.53 4.463 12.38 12.547 12.38 3.026 0 6.346-.536 9.126-1.657l-.695-5.607c-2.282 1.026-4.81 1.517-7.24 1.517-4.067 0-6.052-1.853-6.103-5.074h14.681c.151-1.168.248-2.241.248-3.266zm-7.439-1.66h-7.44c.2-2.481 1.786-4.188 3.969-4.188 2.182 0 3.571 1.46 3.471 4.188zm12.052 15.211h7.537V.357h-7.536zm36.7-13.404c0-7.02-3.128-11.358-9.027-11.358-3.274 0-5.802 1.412-6.991 3.606l-.05-.049c.196-1.267.347-3.313.347-4.823V.357h-7.54v34.901c2.927.785 5.95 1.219 9.625 1.219 8.876 0 13.636-5.993 13.636-13.94zm-7.985.732c0 5.409-2.184 7.265-5.11 7.265-1.136 0-1.932-.102-2.626-.295v-6.092c0-3.903 1.783-6.779 4.363-6.779 2.28 0 3.373 1.854 3.373 5.901zm33.571-.879c0-6.337-3.272-11.26-10.71-11.26-7.637 0-11.853 5.51-11.853 12.967 0 8.53 4.462 12.38 12.547 12.38 3.022 0 6.345-.536 9.122-1.657l-.69-5.607c-2.283 1.026-4.811 1.517-7.243 1.517-4.069 0-6.049-1.853-6.1-5.074h14.682c.144-1.168.245-2.241.245-3.266zm-7.44-1.66h-7.436c.2-2.481 1.787-4.188 3.967-4.188 2.182 0 3.571 1.46 3.469 4.188zm30.393 15.794c-2.333 0-4.713-.241-6.845-.727l.397-7.022c1.884.682 4.61 1.22 7.041 1.22 2.827 0 4.858-1.17 4.858-3.506 0-5.607-13.338-2.731-13.338-13.75 0-6.189 4.91-10.287 13.29-10.287 1.79 0 4.021.194 6.1.588l-.443 6.58c-1.885-.538-3.969-.877-5.948-.877-3.226 0-4.714 1.367-4.714 3.218 0 5.113 13.34 3.167 13.34 13.452 0 6.39-5.207 11.111-13.738 11.111m39.424-14.134c0-6.337-3.273-11.26-10.707-11.26-7.639 0-11.855 5.51-11.855 12.967 0 8.53 4.463 12.38 12.547 12.38 3.027 0 6.352-.536 9.123-1.657l-.694-5.607c-2.282 1.026-4.811 1.517-7.24 1.517-4.065 0-6.049-1.853-6.1-5.074h14.68c.15-1.168.246-2.241.246-3.266zm-7.436-1.66h-7.439c.199-2.481 1.788-4.188 3.968-4.188 2.179 0 3.573 1.46 3.471 4.188zm12.051 15.211h7.537V11.715h-7.537v24.226zm3.767-26.759c-2.528 0-4.61-1.95-4.61-4.389 0-2.435 2.082-4.387 4.61-4.387 2.579 0 4.662 1.952 4.662 4.387 0 2.391-2.083 4.39-4.662 4.39zm18.398 27.295c-5.7 0-7.537-1.854-7.537-7.8V17.422h-3.72v-5.706h3.72V4.55l7.537-1.998v9.163h5.355v5.706h-5.304v9.555c0 2.481.644 3.313 2.527 3.313.896 0 1.99-.197 2.777-.39v5.898c-1.633.39-3.567.68-5.355.68M242.98 22.39c0-6.337-3.274-11.26-10.712-11.26-7.64 0-11.853 5.51-11.853 12.967 0 8.53 4.463 12.38 12.545 12.38 3.024 0 6.346-.536 9.121-1.657l-.691-5.607c-2.28 1.026-4.81 1.517-7.238 1.517-4.07 0-6.05-1.853-6.103-5.074h14.684c.145-1.168.247-2.241.247-3.266zm-6.539-1.66h-7.436c.2-2.481 1.784-4.188 3.968-4.188 2.185 0 3.57 1.46 3.468 4.188zm25.88 15.211V20.538c0-1.951-.548-3.117-2.285-3.117-2.679 0-4.91 3.217-4.91 6.778v11.742h-7.534V11.715h7.04c0 .876-.051 2.633-.294 3.802h.048c1.537-2.485 4.264-4.338 8.184-4.338 5.504 0 7.289 3.464 7.289 7.654v17.108h-7.538" fill="#000"></path>
	</g>
</svg>
