<?xml version="1.0" encoding="UTF-8"?>
<svg xmlns="http://www.w3.org/2000/svg" version="1.1" viewBox="0 0 271 37">
  <defs>
    <style>
      .cls-1 {
        fill: #fff;
        fill-rule: evenodd;
      }

      .cls-1, .cls-2 {
        stroke-width: 0px;
      }

      .cls-2 {
        fill: none;
      }
    </style>
  </defs>
  <g id="Layer_1" data-name="Layer 1" focusable="false">
    <g>
      <path class="cls-2" d="M-45,81.7h360.9V-44.7H-45v126.3Z"/>
      <path class="cls-1" d="M28.7,11c-2.8-1.1-5.8-1.7-8.9-1.7-6.4,0-10.4,3.9-10.4,10.4s3.3,9.9,9.5,9.9,2.3-.1,3.2-.4v-10.8h7.7v15.9c-3.3,1.3-7.4,2.1-11.8,2.1C7.2,36.5,1,30.3,1,20.3S8.3,2.6,20.2,2.6s6.8.6,9.6,1.4l-1.2,7M56.7,22.4c0-6.3-3.3-11.3-10.7-11.3s-11.9,5.5-11.9,13,4.5,12.4,12.5,12.4,6.3-.5,9.1-1.7l-.7-5.6c-2.3,1-4.8,1.5-7.2,1.5-4.1,0-6.1-1.9-6.1-5.1h14.7c.2-1.2.2-2.2.2-3.3ZM49.3,20.7h-7.4c.2-2.5,1.8-4.2,4-4.2s3.6,1.5,3.5,4.2ZM61.3,35.9h7.5V.4h-7.5v35.6ZM98,22.5c0-7-3.1-11.4-9-11.4s-5.8,1.4-7,3.6h0c.2-1.3.3-3.4.3-4.9V.4h-7.5v34.9c2.9.8,5.9,1.2,9.6,1.2,8.9,0,13.6-6,13.6-13.9ZM90.1,23.3c0,5.4-2.2,7.3-5.1,7.3s-1.9-.1-2.6-.3v-6.1c0-3.9,1.8-6.8,4.4-6.8s3.4,1.9,3.4,5.9ZM123.6,22.4c0-6.3-3.3-11.3-10.7-11.3s-11.9,5.5-11.9,13,4.5,12.4,12.5,12.4,6.3-.5,9.1-1.7l-.7-5.6c-2.3,1-4.8,1.5-7.2,1.5-4.1,0-6-1.9-6.1-5.1h14.7c.1-1.2.2-2.2.2-3.3ZM116.2,20.7h-7.4c.2-2.5,1.8-4.2,4-4.2s3.6,1.5,3.5,4.2ZM146.6,36.5c-2.3,0-4.7-.2-6.8-.7l.4-7c1.9.7,4.6,1.2,7,1.2s4.9-1.2,4.9-3.5c0-5.6-13.3-2.7-13.3-13.8s4.9-10.3,13.3-10.3,4,.2,6.1.6l-.4,6.6c-1.9-.5-4-.9-5.9-.9-3.2,0-4.7,1.4-4.7,3.2,0,5.1,13.3,3.2,13.3,13.5s-5.2,11.1-13.7,11.1M186,22.4c0-6.3-3.3-11.3-10.7-11.3s-11.9,5.5-11.9,13,4.5,12.4,12.5,12.4,6.4-.5,9.1-1.7l-.7-5.6c-2.3,1-4.8,1.5-7.2,1.5-4.1,0-6-1.9-6.1-5.1h14.7c.1-1.2.2-2.2.2-3.3h0ZM178.6,20.7h-7.4c.2-2.5,1.8-4.2,4-4.2s3.6,1.5,3.5,4.2ZM190.6,35.9h7.5V11.7h-7.5v24.2ZM194.4,9.2c-2.5,0-4.6-1.9-4.6-4.4s2.1-4.4,4.6-4.4,4.7,2,4.7,4.4-2.1,4.4-4.7,4.4h0ZM212.8,36.5c-5.7,0-7.5-1.9-7.5-7.8v-11.3h-3.7v-5.7h3.7v-7.2l7.5-2v9.2h5.4v5.7h-5.3v9.6c0,2.5.6,3.3,2.5,3.3s2-.2,2.8-.4v5.9c-1.6.4-3.6.7-5.4.7M243,22.4c0-6.3-3.3-11.3-10.7-11.3s-11.9,5.5-11.9,13,4.5,12.4,12.5,12.4,6.3-.5,9.1-1.7l-.7-5.6c-2.3,1-4.8,1.5-7.2,1.5-4.1,0-6.1-1.9-6.1-5.1h14.7c.1-1.2.2-2.2.2-3.3ZM236.4,20.7h-7.4c.2-2.5,1.8-4.2,4-4.2s3.6,1.5,3.5,4.2ZM262.3,35.9v-15.4c0-2-.5-3.1-2.3-3.1-2.7,0-4.9,3.2-4.9,6.8v11.7h-7.5V11.7h7c0,.9,0,2.6-.3,3.8h0c1.5-2.5,4.3-4.3,8.2-4.3s7.3,3.5,7.3,7.7v17.1h-7.5"/>
    </g>
  </g>
</svg>