<svg width="78" height="81" viewBox="0 0 78 81" fill="none" xmlns="http://www.w3.org/2000/svg">
    <path fill-rule="evenodd" clip-rule="evenodd" d="M64.286.816C68.6.002 72.214.944 74.472 3.444c4.514 5.043 1.857 14.558-6.03 21.657-2.913 2.615-6.185 4.543-9.428 5.615l4.8 12.014c.2.486.1 1.057-.242 1.457l-30.643 35.6a1.44 1.44 0 0 1-1.086.5c-.329 0-.657-.114-.929-.343L.943 54.216a1.355 1.355 0 0 1-.5-.972c-.029-.385.1-.757.343-1.042l30.5-35.443c.343-.4.871-.572 1.371-.472l12.086 2.472c1-4.086 3.571-8.086 7.543-11.643 3.671-3.3 7.943-5.543 12-6.3zm-60.4 52.157 27.8 23.857L60.814 42.96 56.2 31.4c-.928.172-1.843.258-2.7.258-3.014 0-5.543-1-7.257-2.915a1.425 1.425 0 0 1 .114-2.014 1.438 1.438 0 0 1 2.014.114c1.429 1.6 3.8 2.229 6.743 1.843l-2.128-5.328-7.057-1.443-.8-.172-12.215-2.5L3.886 52.973zm62.628-30c-2.671 2.4-5.642 4.143-8.571 5.071l-2.586-6.457a1.437 1.437 0 0 0-1.043-.871l-6.771-1.386c.886-3.457 3.214-6.986 6.657-10.086 3.286-2.957 7.057-4.942 10.614-5.614 3.3-.614 5.972 0 7.529 1.729 3.328 3.714.671 11.785-5.829 17.614zM45.3 41.616c.629.828 1.129 1.6 1.486 2.3l.1.3-3.157 2.014-.172-.357a13.04 13.04 0 0 0-1.257-2.014 12.342 12.342 0 0 0-1.828-1.943c-.686-.586-1.4-.986-2.1-1.2-.7-.2-1.415-.272-2.13-.186-.713.086-1.428.3-2.128.657-.6.3-1.185.672-1.771 1.086l5.728 4.886-2.028 2.371-6.1-5.214c-.077.096-.16.186-.247.278-.04.045-.083.09-.125.136-.214.229-.428.472-.642.729l-.572.671c-.1.1-.2.229-.285.343l6.128 5.229-2.029 2.371-5.828-4.986c-.914 1.629-1.314 3.114-1.171 4.429.157 1.386.985 2.757 2.5 4.043.585.5 1.285.971 2.07 1.385.787.415 1.587.743 2.372.972l.386.114-1.471 3.343-.3-.086a15.346 15.346 0 0 1-3.2-1.4c-1.043-.6-1.986-1.243-2.786-1.928-2.286-1.943-3.6-4.1-3.929-6.4-.314-2.229.372-4.729 2.072-7.429l-2.714-2.329 2.028-2.37 2.514 2.142c.038-.056.08-.106.122-.153a2.37 2.37 0 0 0 .064-.076l.414-.485.052-.06c.238-.279.466-.545.72-.812.113-.132.233-.258.35-.382.06-.063.12-.126.178-.19l-2.543-2.17 2.029-2.372 2.886 2.457c1-.786 2.057-1.428 3.143-1.9 1.185-.514 2.4-.8 3.628-.857 1.243-.072 2.5.143 3.743.586 1.243.457 2.5 1.214 3.757 2.285a13.525 13.525 0 0 1 2.043 2.172z" fill="#FFDC00"/>
</svg>
