<svg width="80" height="78" viewBox="0 0 80 78" fill="none" xmlns="http://www.w3.org/2000/svg">
<path d="M8.38451 0.530029C3.76129 0.530029 0 4.29132 0 8.91454V49.1602C0 53.7834 3.76129 57.5447 8.38451 57.5447H15.3279C15.8964 62.401 14.4622 65.692 10.8769 67.8452C10.2313 68.2325 9.92241 69.0056 10.1236 69.7317C10.3232 70.4578 10.9854 70.9599 11.7383 70.9599C16.0312 70.9599 26.3401 69.6268 31.3305 57.5447H37.1932C37.0087 56.4513 36.8918 55.3362 36.8918 54.1909H30.1842C29.4799 54.1909 28.8536 54.629 28.6121 55.2881C25.8587 62.7939 20.8253 65.7778 16.7035 66.9249C18.6823 63.9936 19.2598 60.1914 18.4197 55.5665C18.2738 54.7699 17.579 54.1909 16.769 54.1909H8.38451C5.61091 54.1909 3.3538 51.9338 3.3538 49.1602V8.91454C3.3538 6.14094 5.61091 3.88383 8.38451 3.88383H68.753C71.5266 3.88383 73.7837 6.14094 73.7837 8.91454V43.0749C75.3616 45.451 76.4293 48.189 76.8787 51.1286C77.033 50.4947 77.1375 49.841 77.1375 49.1602V8.91454C77.1375 4.29132 73.3762 0.530029 68.753 0.530029H8.38451ZM57.0147 37.4219C47.7732 37.4219 40.2456 44.9495 40.2456 54.1909C40.2456 63.4323 47.7732 70.9599 57.0147 70.9599C61.0334 70.9599 64.724 69.5328 67.6165 67.1639L77.6288 77.1762L80 74.805L69.9877 64.7927C72.3566 61.9002 73.7837 58.2096 73.7837 54.1909C73.7837 44.9495 66.2561 37.4219 57.0147 37.4219ZM57.0147 40.7757C64.4435 40.7757 70.4299 46.762 70.4299 54.1909C70.4299 61.6198 64.4435 67.6061 57.0147 67.6061C49.5858 67.6061 43.5994 61.6198 43.5994 54.1909C43.5994 46.762 49.5858 40.7757 57.0147 40.7757Z" fill="#FFDC00"/>
</svg>
