<svg width="80" height="81" viewBox="0 0 80 81" fill="none" xmlns="http://www.w3.org/2000/svg">
<path d="M5.21437 0.530029C2.35521 0.530029 0 2.88524 0 5.7444V66.5787C0 69.4379 2.35521 71.7931 5.21437 71.7931H61.4759L67.96 78.2228C70.741 81.0038 75.0876 81.1776 78.0424 78.2228C80.8234 75.4418 80.4758 70.9247 78.0424 68.1437L73.0012 63.1704V5.7444C73.0012 2.88524 70.646 0.530029 67.7868 0.530029H5.21437ZM5.21437 4.00628H67.7868C68.7689 4.00628 69.525 4.76231 69.525 5.7444V59.7383L53.3624 43.7896C53.1469 43.5776 52.8838 43.4265 52.5918 43.3483L42.1631 40.5646C41.5547 40.4047 40.9139 40.5796 40.4759 41.0263C40.0379 41.4712 39.871 42.1189 40.0414 42.7203L42.9982 53.149C43.0799 53.4375 43.2325 53.6974 43.4463 53.9094L57.9725 68.3169H5.21437C4.23228 68.3169 3.47625 67.5608 3.47625 66.5787V5.7444C3.47625 4.76231 4.23228 4.00628 5.21437 4.00628ZM15.6431 16.1731C15.4128 16.1699 15.1841 16.2124 14.9704 16.2983C14.7567 16.3842 14.5621 16.5117 14.3981 16.6734C14.2341 16.8352 14.1038 17.0279 14.0149 17.2404C13.926 17.4529 13.8802 17.6809 13.8802 17.9113C13.8802 18.1416 13.926 18.3697 14.0149 18.5822C14.1038 18.7947 14.2341 18.9874 14.3981 19.1491C14.5621 19.3108 14.7567 19.4383 14.9704 19.5242C15.1841 19.6101 15.4128 19.6526 15.6431 19.6494H57.3581C57.5884 19.6526 57.8171 19.6101 58.0308 19.5242C58.2446 19.4383 58.4391 19.3108 58.6031 19.1491C58.7671 18.9874 58.8974 18.7947 58.9863 18.5822C59.0752 18.3697 59.121 18.1416 59.121 17.9113C59.121 17.6809 59.0752 17.4529 58.9863 17.2404C58.8974 17.0279 58.7671 16.8352 58.6031 16.6734C58.4391 16.5117 58.2446 16.3842 58.0308 16.2983C57.8171 16.2124 57.5884 16.1699 57.3581 16.1731H15.6431ZM15.6431 28.34C15.4128 28.3368 15.1841 28.3793 14.9704 28.4652C14.7567 28.5511 14.5621 28.6786 14.3981 28.8403C14.2341 29.002 14.1038 29.1947 14.0149 29.4072C13.926 29.6197 13.8802 29.8478 13.8802 30.0781C13.8802 30.3085 13.926 30.5365 14.0149 30.749C14.1038 30.9615 14.2341 31.1542 14.3981 31.316C14.5621 31.4777 14.7567 31.6052 14.9704 31.6911C15.1841 31.777 15.4128 31.8195 15.6431 31.8163H57.3581C57.5884 31.8195 57.8171 31.777 58.0308 31.6911C58.2446 31.6052 58.4391 31.4777 58.6031 31.316C58.7671 31.1542 58.8974 30.9615 58.9863 30.749C59.0752 30.5365 59.121 30.3085 59.121 30.0781C59.121 29.8478 59.0752 29.6197 58.9863 29.4072C58.8974 29.1947 58.7671 29.002 58.6031 28.8403C58.4391 28.6786 58.2446 28.5511 58.0308 28.4652C57.8171 28.3793 57.5884 28.3368 57.3581 28.34H15.6431ZM15.6431 40.5069C15.4128 40.5036 15.1841 40.5462 14.9704 40.6321C14.7567 40.7179 14.5621 40.8455 14.3981 41.0072C14.2341 41.1689 14.1038 41.3616 14.0149 41.5741C13.926 41.7866 13.8802 42.0147 13.8802 42.245C13.8802 42.4753 13.926 42.7034 14.0149 42.9159C14.1038 43.1284 14.2341 43.3211 14.3981 43.4828C14.5621 43.6445 14.7567 43.7721 14.9704 43.8579C15.1841 43.9438 15.4128 43.9864 15.6431 43.9831H33.0244C33.2547 43.9864 33.4833 43.9438 33.6971 43.8579C33.9108 43.7721 34.1054 43.6445 34.2694 43.4828C34.4334 43.3211 34.5637 43.1284 34.6526 42.9159C34.7415 42.7034 34.7872 42.4753 34.7872 42.245C34.7872 42.0147 34.7415 41.7866 34.6526 41.5741C34.5637 41.3616 34.4334 41.1689 34.2694 41.0072C34.1054 40.8455 33.9108 40.7179 33.6971 40.6321C33.4833 40.5462 33.2547 40.5036 33.0244 40.5069H15.6431ZM51.2509 46.5869L74.2878 69.4609L69.1006 74.6515L46.2198 51.7606L46.1621 51.5603L51.2509 46.5869Z" fill="#FFDC00"/>
</svg>
