<svg width="72" height="81" viewBox="0 0 72 81" fill="none" xmlns="http://www.w3.org/2000/svg">
    <path fill-rule="evenodd" clip-rule="evenodd" d="M7.347 11.15c0 5.932 7.577 10.53 17.312 10.53 4.775 0 9.321-1.15 12.582-3.219l7.577 1.931c.55.138 1.147-.138 1.423-.643.276-.552.138-1.15-.276-1.564l-4.637-4.23c.413-.92.642-1.839.642-2.804C41.97 5.22 34.348.622 24.66.622c-9.69 0-17.312 4.598-17.312 10.529zm2.526 0c0-4.321 6.796-7.953 14.786-7.953 7.99 0 14.74 3.632 14.786 7.954 0 .827-.23 1.609-.735 2.437a1.268 1.268 0 0 0 .23 1.609l1.561 1.425-3.168-.828c-.368-.091-.735-.046-1.057.184-2.847 1.977-7.071 3.127-11.617 3.127-8.036 0-14.786-3.632-14.786-7.954zm59.97 6.116c0 3.448-1.836 6.437-4.591 8.092 3.673 1.885 6.199 5.839 6.29 10.345v11.953c0 .736-.55 1.288-1.285 1.288a1.284 1.284 0 0 1-1.286-1.288v-10.62l-7.668 5.011c-.735.46-1.516.69-2.342.69a5.63 5.63 0 0 1-.873-.092c-1.148-.23-2.066-.873-2.709-1.839-.597-.965-.827-2.115-.597-3.218.23-1.15.873-2.07 1.837-2.713l5.372-3.494c.551-.368 1.378-.23 1.745.367.368.552.23 1.38-.367 1.748l-5.373 3.494c-.367.276-.643.644-.734 1.103-.092.46 0 .92.23 1.288.275.367.642.643 1.101.735.46.092.919 0 1.286-.23l8.908-5.839c-.734-4.23-4.224-7.402-8.403-7.402-3.811 0-7.163 2.667-8.22 6.529l-.459 1.747-9.23-6.345a1.753 1.753 0 0 0-2.387.46 1.758 1.758 0 0 0 .459 2.39l11.296 7.817v8.413c0 .736-.597 1.288-1.286 1.288a1.284 1.284 0 0 1-1.285-1.288v-7.08l-10.194-7.034c-1.93-1.334-2.434-4-1.103-5.931 1.332-1.931 3.995-2.437 5.924-1.104l6.383 4.414c1.102-2.437 2.985-4.414 5.235-5.563-2.755-1.655-4.592-4.644-4.592-8.092 0-5.242 4.27-9.472 9.46-9.472 5.234 0 9.459 4.276 9.459 9.472zm-9.459-6.897a6.883 6.883 0 0 0-6.888 6.897c0 3.77 3.077 6.896 6.888 6.896a6.883 6.883 0 0 0 6.888-6.896 6.883 6.883 0 0 0-6.888-6.897zm-26.909 40 15.337 6.805c.643.276.919 1.057.597 1.7l-9.23 20.783a1.267 1.267 0 0 1-.688.69 1.63 1.63 0 0 1-.46.091c-.183 0-.32 0-.505-.092l-6.98-3.126a.24.24 0 0 0-.068-.046.24.24 0 0 1-.07-.046c-.09-.046-.183-.092-.275-.184-.023-.023-.046-.058-.069-.092a.638.638 0 0 0-.068-.092c-.023-.046-.046-.08-.07-.115-.022-.034-.045-.069-.068-.115-.046-.092-.046-.23-.046-.322 0-.054-.016-.092-.029-.123a.164.164 0 0 1-.017-.06v-6.483c0-7.77-6.2-14.115-13.96-14.115-7.76 0-14.05 6.298-14.05 14.069v4.46c0 .735-.552 1.287-1.287 1.287a1.284 1.284 0 0 1-1.285-1.288v-4.46c0-7.448 4.959-13.793 11.755-15.861a13.689 13.689 0 0 1-6.934-11.909c0-7.586 6.153-13.747 13.73-13.747 7.577 0 13.73 6.161 13.73 13.747 0 5.794-3.582 10.76-8.679 12.782a16.963 16.963 0 0 1 4.914 3.54l3.122-7.034c.138-.322.368-.552.689-.69.321-.092.643-.092.964.046zm-14.74-19.862c-6.199 0-11.204 5.058-11.204 11.218 0 6.161 5.005 11.219 11.204 11.219 6.2 0 11.204-5.058 11.204-11.219 0-6.206-5.05-11.218-11.204-11.218zm19.7 46.943-5.097-2.253v-5.655c0-3.449-1.057-6.621-2.848-9.288l3.123-7.034 12.995 5.793-8.173 18.437z" fill="#FFDC00"/>
</svg>
