<svg width="90" height="81" viewBox="0 0 90 81" fill="none" xmlns="http://www.w3.org/2000/svg">
    <path fill-rule="evenodd" clip-rule="evenodd" d="M87.485 40.224h.051c.818 0 1.43.664 1.38 1.43 0 7.97-6.335 14.457-14.1 14.457s-14.1-6.487-14.1-14.457c0-.817.664-1.43 1.43-1.43h.052l10.677-17.471H51.06v48.173H62.25c2.4 0 4.393 2.044 4.393 4.496 0 2.503-1.992 4.495-4.393 4.495H27.306c-2.4 0-4.393-2.043-4.393-4.495 0-2.503 1.992-4.496 4.393-4.496h11.188V22.753H16.17l11.136 17.47h.052c.817 0 1.43.665 1.43 1.431 0 7.97-6.335 14.457-14.1 14.457S.588 49.624.588 41.654c0-.817.665-1.43 1.431-1.43h.051l10.677-17.42h-.204c-2.401 0-4.394-1.993-4.394-4.496s1.993-4.495 4.394-4.495h25.951v-8.48c0-2.81 4.087-4.496 6.284-4.496 2.196 0 6.283 1.737 6.283 4.495v8.43h25.952c2.4 0 4.393 1.992 4.393 4.495s-1.992 4.496-4.393 4.496h-.665l11.137 17.47zm-83.984 2.86c.664 5.722 5.466 10.167 11.187 10.167 5.773 0 10.524-4.445 11.188-10.166H3.5zm22.12-2.86H3.705l10.677-17.471h.102l11.137 17.47zm22.58-18.85c0-.818.663-1.431 1.43-1.431v.051h27.382c.817 0 1.532-.715 1.532-1.635s-.664-1.635-1.532-1.635H49.63c-.818 0-1.43-.664-1.43-1.43v-9.91c-.103-.511-2.095-1.635-3.423-1.635-1.329 0-3.32 1.124-3.423 1.635v9.859c0 .817-.664 1.43-1.43 1.43H12.543c-.818 0-1.533.716-1.533 1.635 0 .92.664 1.635 1.533 1.635h27.382c.817 0 1.43.664 1.43 1.43v50.984c0 .817-.664 1.43-1.43 1.43H27.306c-.817 0-1.532.715-1.532 1.635s.664 1.635 1.532 1.635H62.25c.817 0 1.532-.716 1.532-1.635 0-.92-.664-1.635-1.532-1.635H49.63c-.409 0-.767-.153-1.022-.409-.255-.306-.409-.664-.409-1.021V21.373zm26.36 1.379h.102l11.136 17.47H63.884l10.677-17.47zM63.679 43.085c.664 5.721 5.466 10.166 11.188 10.166s10.473-4.445 11.188-10.166H63.679z" fill="#FFDC00"/>
</svg>
