<svg width="71" height="81" viewBox="0 0 71 81" fill="none" xmlns="http://www.w3.org/2000/svg">
    <path fill-rule="evenodd" clip-rule="evenodd" d="M67.69 72.481c.83.44 1.367 1.562 1.416 1.708.439.975.878 2.927-1.122 5.024-.878.83-1.952 1.269-3.074 1.269a4.247 4.247 0 0 1-3.024-1.269L49.154 68.725c-2.536 1.464-5.366 2.244-8.292 2.244-4.927 0-9.366-2.195-12.39-5.658h-26c-.781 0-1.367-.634-1.367-1.366V1.896c0-.78.635-1.366 1.366-1.366h46.293c.78 0 1.366.634 1.366 1.366v38.976c4.39 2.975 7.268 8 7.268 13.658a16.16 16.16 0 0 1-2 7.805 4710.36 4710.36 0 0 1 5.763 4.764l.006.005.004.003c3.069 2.54 5.768 4.773 6.52 5.374zM3.838 3.263v59.366h22.78a16.316 16.316 0 0 1-2.146-8.098c0-.975.098-1.902.244-2.78H9.398c-.78 0-1.366-.634-1.366-1.366V20.579c0-.78.586-1.366 1.366-1.366.78 0 1.366.634 1.366 1.366v17.805l4.585-2.44c.147-.097.342-.097.537-.048.146.098.293.195.39.39l1.415 3.269 2.097-6.927a.577.577 0 0 1 .44-.44.74.74 0 0 1 .634.147l1.756 1.464 2.146-10.244a.675.675 0 0 1 .634-.537c.293 0 .537.195.634.488l3.025 11.902 2.536-6.78a.694.694 0 0 1 .634-.44c.293 0 .537.196.635.44l1.463 3.61 2.878-8.78c.098-.294.44-.489.683-.489.293 0 .536.195.634.488l2 7.317c.098.342-.146.732-.488.83-.341.097-.731-.147-.829-.488l-1.415-5.122-2.731 8.39c-.098.293-.342.488-.635.488-.243 0-.536-.195-.634-.44l-1.512-3.707-2.683 7.171c-.097.293-.39.44-.683.44-.292 0-.585-.196-.634-.489l-2.83-11.17-1.755 8.487a.72.72 0 0 1-.44.488.847.847 0 0 1-.682-.146l-1.805-1.561-2.293 7.707a.58.58 0 0 1-.585.488h-.049c-.293 0-.536-.146-.634-.39l-1.854-4.244-4.585 2.439v9.073h14.634c2.244-6.439 8.342-11.024 15.512-11.024 2.342 0 4.537.487 6.537 1.365V3.262H3.837zM66.081 77.36a1.591 1.591 0 0 1-2.195.048l-.146-.146-13.61-11.22c-.44-.39-1.122-.39-1.61-.097-2.244 1.512-4.927 2.293-7.658 2.293-7.61 0-13.757-6.196-13.757-13.757 0-7.61 6.196-13.756 13.757-13.756 7.61 0 13.756 6.195 13.756 13.756 0 2.635-.732 5.171-2.196 7.415-.39.585-.243 1.317.293 1.756l6.732 5.561 1.156.954.004.003h.002c1.268 1.047 2.5 2.063 3.472 2.848.14.114.273.225.4.33v.001c.638.526 1.145.946 1.551 1.23l.098.098s.049 0 .049.048c0 0 .536.488.536 1.171.098.44-.146.927-.634 1.464zm-25.17-12.586c-5.513 0-10.05-4.488-10.05-10.049a10.034 10.034 0 0 1 10.05-10.048 10.034 10.034 0 0 1 10.048 10.048 10.034 10.034 0 0 1-10.049 10.05zm0-18.732c-4.781 0-8.684 3.903-8.684 8.683 0 4.78 3.903 8.683 8.683 8.683 4.78 0 8.683-3.902 8.683-8.683 0-4.78-3.902-8.683-8.683-8.683z" fill="#FFDC00"/>
</svg>
